<svg width="25" height="25" viewBox="0 0 25 25" fill="none" xmlns="http://www.w3.org/2000/svg">
<path d="M4.00802 0.994391L12.5 9.48639L20.948 1.03839C21.1346 0.839769 21.3594 0.680879 21.6089 0.571248C21.8584 0.461616 22.1275 0.403502 22.4 0.400391C22.9835 0.400391 23.5431 0.632176 23.9557 1.04476C24.3682 1.45734 24.6 2.01691 24.6 2.60039C24.6051 2.87012 24.5551 3.13804 24.453 3.38773C24.3508 3.63742 24.1987 3.8636 24.006 4.05239L15.448 12.5004L24.006 21.0584C24.3686 21.4131 24.5812 21.8935 24.6 22.4004C24.6 22.9839 24.3682 23.5434 23.9557 23.956C23.5431 24.3686 22.9835 24.6004 22.4 24.6004C22.1196 24.612 21.8399 24.5652 21.5786 24.463C21.3172 24.3607 21.08 24.2052 20.882 24.0064L12.5 15.5144L4.03002 23.9844C3.84413 24.1764 3.62206 24.3297 3.37662 24.4354C3.13118 24.5411 2.86724 24.5972 2.60002 24.6004C2.01654 24.6004 1.45696 24.3686 1.04438 23.956C0.631801 23.5434 0.400016 22.9839 0.400016 22.4004C0.394887 22.1307 0.44493 21.8627 0.547075 21.6131C0.64922 21.3634 0.801312 21.1372 0.994016 20.9484L9.55202 12.5004L0.994016 3.94239C0.631423 3.58766 0.418803 3.1073 0.400016 2.60039C0.400016 2.01691 0.631801 1.45734 1.04438 1.04476C1.45696 0.632176 2.01654 0.400391 2.60002 0.400391C3.12802 0.406991 3.63402 0.620391 4.00802 0.994391Z" fill="#363535"/>
</svg>
