<svg width="60" height="60" viewBox="0 0 60 60" fill="none" xmlns="http://www.w3.org/2000/svg">
<path d="M29.9999 2.3999C14.7815 2.3999 2.3999 14.7803 2.3999 29.9999C2.3999 45.2195 14.7815 57.5999 29.9999 57.5999C45.2183 57.5999 57.5999 45.2195 57.5999 29.9999C57.5999 14.7803 45.2183 2.3999 29.9999 2.3999ZM21.5999 41.9999H16.7999V23.9999H21.5999V41.9999ZM19.1999 20.3999C17.8739 20.3999 16.7999 19.3259 16.7999 17.9999C16.7999 16.6739 17.8739 15.5999 19.1999 15.5999C20.5259 15.5999 21.5999 16.6739 21.5999 17.9999C21.5999 19.3259 20.5259 20.3999 19.1999 20.3999ZM44.3999 41.9999H39.5999V35.9999V32.9999C39.5999 30.6899 37.7099 28.7999 35.3999 28.7999C33.0899 28.7999 31.1999 30.6899 31.1999 32.9999V41.9999H26.3999V23.9999H31.1999V26.1791C32.6015 24.8327 34.5023 23.9999 36.5999 23.9999C40.9079 23.9999 44.3999 27.4919 44.3999 31.7999V41.9999Z" fill="#8C0019"/>
</svg>
