<svg width="42" height="28" viewBox="0 0 42 28" fill="none" xmlns="http://www.w3.org/2000/svg">
<path d="M3 27.5C2.3625 27.5 1.8285 27.284 1.398 26.852C0.966 26.4215 0.75 25.8875 0.75 25.25C0.75 24.6125 0.966 24.0785 1.398 23.648C1.8285 23.216 2.3625 23 3 23H39C39.6375 23 40.1715 23.216 40.602 23.648C41.034 24.0785 41.25 24.6125 41.25 25.25C41.25 25.8875 41.034 26.4215 40.602 26.852C40.1715 27.284 39.6375 27.5 39 27.5H3ZM3 16.25C2.3625 16.25 1.8285 16.034 1.398 15.602C0.966 15.1715 0.75 14.6375 0.75 14C0.75 13.3625 0.966 12.8277 1.398 12.3957C1.8285 11.9652 2.3625 11.75 3 11.75H39C39.6375 11.75 40.1715 11.9652 40.602 12.3957C41.034 12.8277 41.25 13.3625 41.25 14C41.25 14.6375 41.034 15.1715 40.602 15.602C40.1715 16.034 39.6375 16.25 39 16.25H3ZM3 5C2.3625 5 1.8285 4.78475 1.398 4.35425C0.966 3.92225 0.75 3.3875 0.75 2.75C0.75 2.1125 0.966 1.57775 1.398 1.14575C1.8285 0.71525 2.3625 0.5 3 0.5H39C39.6375 0.5 40.1715 0.71525 40.602 1.14575C41.034 1.57775 41.25 2.1125 41.25 2.75C41.25 3.3875 41.034 3.92225 40.602 4.35425C40.1715 4.78475 39.6375 5 39 5H3Z" fill="#424242"/>
</svg>
