<svg width="13" height="23" viewBox="0 0 13 23" fill="none" xmlns="http://www.w3.org/2000/svg">
<path d="M1.0437 21.7375C0.762451 21.4563 0.621826 21.1232 0.621826 20.7385C0.621826 20.3545 0.762451 20.0219 1.0437 19.7406L9.28433 11.5L1.01558 3.23125C0.753076 2.96875 0.621826 2.64063 0.621826 2.24688C0.621826 1.85313 0.762451 1.51562 1.0437 1.23438C1.32495 0.953125 1.65795 0.8125 2.0427 0.8125C2.4267 0.8125 2.75933 0.953125 3.04058 1.23438L12.4906 10.7125C12.6031 10.825 12.683 10.9469 12.7302 11.0781C12.7767 11.2094 12.8 11.35 12.8 11.5C12.8 11.65 12.7767 11.7906 12.7302 11.9219C12.683 12.0531 12.6031 12.175 12.4906 12.2875L3.01245 21.7656C2.74995 22.0281 2.4267 22.1594 2.0427 22.1594C1.65795 22.1594 1.32495 22.0188 1.0437 21.7375Z" fill="black"/>
</svg>
