<svg width="21" height="21" viewBox="0 0 21 21" fill="none" xmlns="http://www.w3.org/2000/svg">
<path d="M19.2498 11.9554H11.9582V19.247C11.9582 19.6338 11.8045 20.0047 11.531 20.2782C11.2575 20.5517 10.8866 20.7054 10.4998 20.7054C10.1131 20.7054 9.74213 20.5517 9.46864 20.2782C9.19515 20.0047 9.0415 19.6338 9.0415 19.247V11.9554H1.74984C1.36306 11.9554 0.992131 11.8017 0.71864 11.5282C0.44515 11.2547 0.291504 10.8838 0.291504 10.497C0.291504 10.1103 0.44515 9.73932 0.71864 9.46583C0.992131 9.19234 1.36306 9.0387 1.74984 9.0387H9.0415V1.74703C9.0415 1.36026 9.19515 0.989322 9.46864 0.715832C9.74213 0.442341 10.1131 0.288696 10.4998 0.288696C10.8866 0.288696 11.2575 0.442341 11.531 0.715832C11.8045 0.989322 11.9582 1.36026 11.9582 1.74703V9.0387H19.2498C19.6366 9.0387 20.0075 9.19234 20.281 9.46583C20.5545 9.73932 20.7082 10.1103 20.7082 10.497C20.7082 10.8838 20.5545 11.2547 20.281 11.5282C20.0075 11.8017 19.6366 11.9554 19.2498 11.9554Z" fill="black"/>
</svg>
