<svg width="65" height="65" viewBox="0 0 65 65" fill="none" xmlns="http://www.w3.org/2000/svg">
<path d="M32.5 6.09375C17.9166 6.09375 6.09375 17.9166 6.09375 32.5C6.09375 47.0834 17.9166 58.9062 32.5 58.9062C47.0834 58.9062 58.9062 47.0834 58.9062 32.5C58.9062 17.9166 47.0834 6.09375 32.5 6.09375ZM45.629 26.6358C45.6412 26.911 45.6463 27.1873 45.6463 27.4645C45.6463 35.9348 39.3605 45.7031 27.8627 45.7031C24.3323 45.7031 21.0468 44.6418 18.2802 42.8238C18.7698 42.8838 19.2684 42.9142 19.7722 42.9142C22.7013 42.9142 25.3967 41.8895 27.5356 40.17C24.8005 40.1182 22.492 38.2637 21.6968 35.7175C22.0777 35.7906 22.4697 35.8312 22.8719 35.8312C23.4427 35.8312 23.9962 35.753 24.5192 35.6068C21.6592 35.0187 19.5051 32.4279 19.5051 29.3221C19.5051 29.2947 19.5051 29.2693 19.5051 29.2419C20.348 29.7212 21.3119 30.0097 22.3366 30.0432C20.6598 28.8945 19.5569 26.9323 19.5569 24.7091C19.5569 23.533 19.8646 22.4321 20.4019 21.4845C23.4863 25.3632 28.0912 27.9165 33.2861 28.1826C33.1805 27.7154 33.1246 27.2248 33.1246 26.7221C33.1246 23.1827 35.9227 20.3125 39.3748 20.3125C41.1724 20.3125 42.7964 21.0915 43.937 22.3377C45.3619 22.0492 46.7005 21.516 47.907 20.7817C47.4409 22.2787 46.4506 23.5351 45.1588 24.3283C46.4242 24.1719 47.6288 23.8286 48.75 23.3177C47.9121 24.6025 46.8518 25.7309 45.629 26.6358Z" fill="#8C0019"/>
</svg>
